<?xml version="1.0" encoding="UTF-8"?>
<svg version="1.1" viewBox="0 0 1000 1000" xmlns="http://www.w3.org/2000/svg">
 <rect width="1e3" height="1e3" fill="#464646"/>
 <path d="m282.51 692.74 12.979 12.979-189.5 189.5 25.874-51.833z" color="#000000" fill="#fff"/>
 <path d="m309.91 651.49 26.824 26.824-47.592 47.592-26.824-26.824z" color="#000000" fill="#7c7c5b"/>
 <path d="m319.86 624.24 44.13 44.13-47.592 47.592-44.13-44.13z" color="#000000" fill="#fff"/>
 <path d="m758.48 146.99 37.064 37.064-265.73 265.73-37.064-37.064z" color="#000000" fill="#aaa"/>
 <path d="m804.58 192.29 37.064 37.064-265.73 265.73-37.064-37.064z" color="#000000" fill="#aaa"/>
 <path d="m795.94 183.65 8.6356 8.6356-265.73 265.73-8.6356-8.6356z" color="#000000" fill="#868686"/>
 <path d="m736.08 109.73 142.42 142.42-10.744 10.744-142.42-142.42z" color="#000000" fill="#868686"/>
 <path d="m540.45 339.97 107.81 107.81-276.22 276.22-107.81-107.81z" color="#000000" fill="#fff"/>
 <path d="m515.12 281.6 191.51 191.51-33.04 33.04-191.51-191.51z" color="#000000" fill="#eaeaea"/>
 <path d="m423.93 456.51-159.7 159.7 107.79 107.79 159.7-159.7-107.79-107.79z" color="#000000" fill="#f66"/>
 <g transform="matrix(.41197 .41197 -1.1361 1.1361 790.99 -428.78)" fill="#0d0d0d" fill-opacity=".2">
  <path d="m628.94 490.99h88.401v3.9414h-88.401z" color="#000000"/>
  <path d="m628.94 474.1h88.401v3.9414h-88.401z" color="#000000"/>
  <path d="m628.94 507.88h88.401v3.9414h-88.401z" color="#000000"/>
  <path d="m628.94 524.77h88.401v3.9414h-88.401z" color="#000000"/>
  <path d="m628.94 541.67h88.401v3.9414h-88.401z" color="#000000"/>
  <path d="m628.94 558.56h88.401v3.9414h-88.401z" color="#000000"/>
  <path d="m628.94 575.45h88.401v3.9414h-88.401z" color="#000000"/>
  <path d="m628.94 592.34h88.401v3.9414h-88.401z" color="#000000"/>
  <path d="m628.94 609.23h88.401v3.9414h-88.401z" color="#000000"/>
  <path d="m628.94 626.13h88.401v3.9414h-88.401z" color="#000000"/>
  <path d="m628.94 643.02h88.401v3.9414h-88.401z" color="#000000"/>
  <path d="m628.94 659.91h88.401v3.9414h-88.401z" color="#000000"/>
  <path d="m628.94 676.8h88.401v3.9414h-88.401z" color="#000000"/>
 </g>
</svg>
